<svg width="35" height="35" viewBox="0 0 35 35" fill="none" xmlns="http://www.w3.org/2000/svg">
<g clip-path="url(#clip0_2167_20717)">
<path d="M16.26 35H7.60001C6.99509 35 6.3961 34.8807 5.83735 34.6489C5.2786 34.4171 4.77106 34.0774 4.34378 33.6492C3.9165 33.2209 3.57787 32.7127 3.34729 32.1534C3.11671 31.5942 2.9987 30.9949 3.00001 30.39V4.61C2.9987 4.00508 3.11671 3.40584 3.34729 2.84659C3.57787 2.28733 3.9165 1.77905 4.34378 1.35084C4.77106 0.922633 5.2786 0.582905 5.83735 0.351108C6.3961 0.119312 6.99509 -1.42939e-06 7.60001 0L16.26 0V3.07H7.60001C7.19158 3.07 6.79987 3.23225 6.51107 3.52106C6.22226 3.80986 6.06001 4.20157 6.06001 4.61V30.39C6.06001 30.7984 6.22226 31.1901 6.51107 31.4789C6.79987 31.7678 7.19158 31.93 7.60001 31.93H16.26V35Z" fill="white"/>
<path d="M33.1702 16.0001L25.0702 9.51011C24.4102 8.99011 23.8702 9.25011 23.8702 10.0901V14.1901H10.1802V20.7901H23.8702V24.9201C23.8702 25.7701 24.3802 25.9901 25.0102 25.4301L33.2302 18.0001C33.3785 17.8768 33.4967 17.7214 33.576 17.5456C33.6552 17.3698 33.6934 17.1782 33.6877 16.9855C33.6819 16.7927 33.6323 16.6038 33.5426 16.4331C33.4529 16.2624 33.3256 16.1143 33.1702 16.0001Z" fill="white"/>
</g>
<defs>
<clipPath id="clip0_2167_20717">
<rect width="35" height="35" fill="white"/>
</clipPath>
</defs>
</svg>
