<svg width="10" height="10" viewBox="0 0 10 10" fill="none" xmlns="http://www.w3.org/2000/svg">
<path fill-rule="evenodd" clip-rule="evenodd" d="M9.66874 4.89375C8.9175 2.95053 7.08189 1.64079 4.99999 1.5625C2.91808 1.64079 1.08248 2.95053 0.331239 4.89375C0.306416 4.96241 0.306416 5.03759 0.331239 5.10625C1.08248 7.04947 2.91808 8.35921 4.99999 8.4375C7.08189 8.35921 8.9175 7.04947 9.66874 5.10625C9.69356 5.03759 9.69356 4.96241 9.66874 4.89375ZM3.12492 5C3.12492 3.96447 3.96438 3.125 4.99992 3.125C6.03545 3.125 6.87492 3.96447 6.87492 5C6.87492 6.03553 6.03545 6.875 4.99992 6.875C3.96438 6.875 3.12492 6.03553 3.12492 5ZM3.74992 5C3.74992 5.69036 4.30956 6.25 4.99992 6.25C5.33144 6.25 5.64938 6.1183 5.8838 5.88388C6.11822 5.64946 6.24992 5.33152 6.24992 5C6.24992 4.30964 5.69027 3.75 4.99992 3.75C4.30956 3.75 3.74992 4.30964 3.74992 5ZM0.959364 5C1.59374 6.58437 3.34374 7.8125 4.99999 7.8125C6.65624 7.8125 8.40624 6.58437 9.04061 5C8.40624 3.41562 6.65624 2.1875 4.99999 2.1875C3.34374 2.1875 1.59374 3.41562 0.959364 5Z" fill="#616161"/>
</svg>
