<svg width="35" height="36" viewBox="0 0 35 36" fill="none" xmlns="http://www.w3.org/2000/svg">
<path d="M2.37613 13.5049L4.89868 14.8092L7.42123 16.1167L4.8349 18.0302L3.18934 19.2293C3.10496 19.3014 3.00098 19.3468 2.89068 19.3595C2.78039 19.3722 2.66881 19.3518 2.5702 19.3008C2.47159 19.2498 2.39044 19.1705 2.33712 19.0731C2.2838 18.9757 2.26074 18.8646 2.27089 18.7541L2.30916 16.7131L2.37613 13.5049Z" fill="white"/>
<path d="M12.0387 1.62875C15.0333 1.62875 17.8364 2.42282 19.9317 3.86109C21.8993 5.21326 22.9836 6.97043 22.9836 8.81052C22.9836 10.6506 21.8993 12.4078 19.9317 13.7631C17.8364 15.2014 15.0333 15.9955 12.0387 15.9955C9.04419 15.9955 6.23781 15.2078 4.14579 13.7631C2.17813 12.4078 1.09385 10.6506 1.09385 8.81052C1.09385 6.97043 2.17494 5.21326 4.14579 3.86109C6.241 2.42282 9.04419 1.62875 12.0419 1.62875M12.0419 0.538086C5.38952 0.538086 0 4.24059 0 8.81052C0 13.3805 5.38952 17.083 12.0387 17.083C18.6879 17.083 24.0743 13.3805 24.0743 8.81052C24.0743 4.24059 18.6847 0.538086 12.0387 0.538086H12.0419Z" fill="white"/>
<path d="M4.00499 11.4254C3.36727 10.3672 3.17499 9.09933 3.47028 7.89963C3.76558 6.69994 4.52436 5.6662 5.58039 5.0249L5.78768 5.36932C4.82183 5.95457 4.12762 6.89908 3.85738 7.99559C3.58714 9.0921 3.76295 10.251 4.34622 11.2181L4.00499 11.4254Z" fill="white"/>
<path d="M11.1807 28.5669L14.408 29.6799L17.6353 30.7961L14.8927 33.5068L13.1483 35.232C13.0607 35.3326 12.945 35.4046 12.8162 35.439C12.6873 35.4734 12.5511 35.4685 12.425 35.425C12.299 35.3815 12.1888 35.3013 12.1085 35.1948C12.0283 35.0883 11.9817 34.9602 11.9747 34.827L11.6558 32.3906L11.1807 28.5669Z" fill="white"/>
<path d="M20.5316 31.0702C28.5242 31.0702 35.0035 26.6169 35.0035 21.1235C35.0035 15.63 28.5242 11.1768 20.5316 11.1768C12.5389 11.1768 6.05957 15.63 6.05957 21.1235C6.05957 26.6169 12.5389 31.0702 20.5316 31.0702Z" fill="white"/>
</svg>
