<svg width="178" height="178" viewBox="0 0 178 178" fill="none" xmlns="http://www.w3.org/2000/svg">
<path d="M99.1022 0.575197C77.8562 -1.85207 56.4466 3.45143 38.7903 15.5154C21.1341 27.5793 8.41172 45.5971 2.95089 66.2722C-2.50994 86.9474 -0.344115 108.898 9.05211 128.107C18.4483 147.316 34.4467 162.5 54.1202 170.88C73.7938 179.261 95.827 180.278 116.189 173.745C136.551 167.213 153.88 153.567 165.006 135.305C176.131 117.043 180.31 95.3857 176.777 74.2954C173.244 53.2052 162.235 34.092 145.765 20.453L133.67 35.0583C146.631 45.7913 155.294 60.832 158.074 77.4285C160.855 94.0251 157.566 111.068 148.811 125.439C140.056 139.81 126.419 150.548 110.396 155.689C94.3724 160.829 77.0338 160.029 61.5521 153.434C46.0704 146.839 33.4808 134.891 26.0866 119.774C18.6924 104.658 16.9881 87.3847 21.2854 71.1148C25.5827 54.845 35.5943 40.6662 49.4885 31.1727C63.3828 21.6793 80.2306 17.5058 96.9497 19.4159L99.1022 0.575197Z" fill="#F3AE5F" fill-opacity="0.2"/>
<path d="M149.829 37.789C153.836 34.4154 154.382 28.3894 150.601 24.7638C143.387 17.8455 135.042 12.1758 125.905 8.01238C116.769 3.84892 107.015 1.27102 97.0606 0.365754C91.8439 -0.10866 87.6544 4.25706 87.7376 9.49458C87.8207 14.7321 92.152 18.8442 97.3528 19.469C104.487 20.3261 111.466 22.2785 118.039 25.2738C124.613 28.2691 130.665 32.2551 135.993 37.0769C139.876 40.5919 145.822 41.1626 149.829 37.789Z" fill="#F3AE5F"/>
</svg>
