<svg width="178" height="178" viewBox="0 0 178 178" fill="none" xmlns="http://www.w3.org/2000/svg">
<path d="M96.654 0.329736C74.38 -1.59296 52.1982 4.93777 34.5196 18.6233C16.8409 32.3088 4.96043 52.1465 1.24059 74.1917C-2.47926 96.2369 2.23403 118.875 14.4432 137.603C26.6524 156.332 45.4631 169.78 67.1347 175.272C88.8064 180.765 111.751 177.9 131.407 167.247C151.063 156.595 165.989 138.934 173.219 117.779C180.448 96.6229 179.45 73.5213 170.424 53.0676C161.398 32.6138 145.004 16.3064 124.503 7.38796L117.093 24.4228C133.314 31.4797 146.286 44.3833 153.428 60.5677C160.571 76.7522 161.36 95.0318 155.64 111.772C149.919 128.512 138.109 142.486 122.555 150.915C107.002 159.344 88.8468 161.611 71.6986 157.265C54.5505 152.919 39.6662 142.278 30.0054 127.458C20.3447 112.639 16.6152 94.7264 19.5586 77.2826C22.502 59.8389 31.9027 44.1419 45.8913 33.313C59.8799 22.4841 77.4316 17.3165 95.0564 18.8379L96.654 0.329736Z" fill="#F3AE5F" fill-opacity="0.2"/>
<path d="M130.288 20.9777C132.989 16.5266 131.588 10.6776 126.876 8.4617C116.129 3.40758 104.477 0.555027 92.6112 0.0732134C87.4086 -0.138035 83.4637 4.402 83.8037 9.59779C84.1437 14.7936 88.6459 18.6637 93.8404 19.023C101.838 19.5763 109.683 21.4968 117.032 24.7007C121.805 26.7816 127.586 25.4288 130.288 20.9777Z" fill="#F3AE5F"/>
</svg>
