<svg width="195" height="180" viewBox="0 0 195 180" fill="none" xmlns="http://www.w3.org/2000/svg">
<g style="mix-blend-mode:multiply" opacity="0.4">
<path d="M85.9053 179.095C133.326 179.095 171.769 174.674 171.769 169.221C171.769 163.768 133.326 159.348 85.9053 159.348C38.4843 159.348 0.0419922 163.768 0.0419922 169.221C0.0419922 174.674 38.4843 179.095 85.9053 179.095Z" fill="#4892E8"/>
</g>
<path d="M92.5687 115.587C92.5687 115.587 93.667 143.233 92.9542 145.614C93.3396 145.614 92.0988 145.942 90.8422 145.672C90.3458 145.561 85.8367 118.655 85.747 116.717C85.6572 114.779 92.5687 115.587 92.5687 115.587Z" fill="#258FB9"/>
<path d="M94.2161 115.672C94.2161 115.672 93.2393 141.876 93.8729 144.136C94.4532 144.239 95.045 144.26 95.6312 144.2C96.0588 144.057 100.177 118.581 100.262 116.744C100.346 114.906 94.2161 115.672 94.2161 115.672Z" fill="#258FB9"/>
<path d="M97.7378 95.2383H88.6404V101.585H97.7378V95.2383Z" fill="#FBF4DB"/>
<g style="mix-blend-mode:multiply">
<path d="M97.7378 95.2383H88.6404V101.585H97.7378V95.2383Z" fill="#FBF4DB"/>
</g>
<path d="M104.523 101.617C104.349 99.3831 100.299 96.8012 97.7379 95.8613C96.9829 100.856 93.8149 100.861 93.1866 100.861C92.5583 100.861 89.3903 100.861 88.6352 95.8613C86.0691 96.8012 82.0247 99.3831 81.8504 101.617C81.597 104.827 82.9064 108.232 82.9064 108.232C83.341 108.373 83.8003 108.422 84.2548 108.376C84.7093 108.329 85.1492 108.189 85.5464 107.963L86.8136 114.827C86.8136 114.827 88.2551 115.63 93.1496 115.63C98.0442 115.63 99.4856 114.827 99.4856 114.827L100.753 107.963C101.15 108.189 101.59 108.329 102.044 108.376C102.499 108.422 102.958 108.373 103.393 108.232C103.393 108.232 104.776 104.785 104.523 101.617Z" fill="#47B2E7"/>
<path d="M98.9258 92.7927C99.8287 85.4746 93.1654 85.4746 93.1654 85.4746C93.1654 85.4746 86.5073 85.4746 87.4102 92.7927C87.4102 92.7927 86.4281 92.8561 86.7185 94.2605C87.0353 95.8445 87.8695 96.3725 88.4187 96.2036C88.4187 96.2036 90.1769 99.5511 93.1707 99.5511C96.1644 99.5511 97.9227 96.2036 97.9227 96.2036C98.4507 96.3514 99.306 95.8287 99.6228 94.2605C99.9027 92.8561 98.9258 92.7927 98.9258 92.7927Z" fill="#FBF4DB"/>
<path d="M89.0048 89.1393C88.9845 90.7218 88.7026 92.29 88.1706 93.7805C88.1706 93.7805 86.4282 92.8617 86.9615 95.0741C86.4753 94.4949 86.0323 93.8807 85.6362 93.2366C84.1314 90.7709 84.7386 88.0833 85.4461 86.4254C86.5496 83.8277 88.8306 84.9734 88.8306 84.9734C88.8306 84.9734 91.9986 81.2774 95.853 82.8614C99.7074 84.4454 98.984 87.5659 100.404 88.379C101.724 89.1393 102.279 93.9811 99.2955 95.6865C96.7559 91.1721 92.0672 95.3961 89.0048 89.1393Z" fill="#8A6CC8"/>
<path d="M94.422 106.093H91.951L91.5286 101.172H94.8444L94.422 106.093Z" fill="#C74373"/>
<path d="M94.5329 101.004H91.8454L91.5286 101.173H94.8444L94.5329 101.004Z" fill="#EA6D73"/>
<path d="M93.5455 102.392C93.5424 102.46 93.5193 102.526 93.4792 102.581C93.4391 102.636 93.3836 102.678 93.3197 102.702C93.2559 102.726 93.1863 102.731 93.1198 102.716C93.0533 102.7 92.9927 102.666 92.9455 102.617C92.8984 102.567 92.8667 102.505 92.8545 102.438C92.8423 102.371 92.8501 102.302 92.8768 102.239C92.9036 102.176 92.9482 102.123 93.0051 102.085C93.0621 102.048 93.1288 102.027 93.197 102.027C93.2441 102.027 93.2908 102.037 93.3341 102.055C93.3775 102.074 93.4166 102.101 93.4492 102.135C93.4818 102.169 93.5071 102.209 93.5236 102.253C93.5402 102.298 93.5476 102.345 93.5455 102.392Z" fill="#EA6D73"/>
<g style="mix-blend-mode:multiply" opacity="0.4">
<path d="M99.6968 113.877C100.753 108.644 99.9766 107.599 99.9766 107.599C99.8844 106.193 99.8844 104.781 99.9766 103.375C99.9766 103.375 99.343 106.923 99.4486 107.388C99.5542 107.852 99.1952 110.83 98.8836 111.052C98.5721 111.274 95.9744 108.629 95.9744 108.629C95.9744 108.629 97.7643 112.705 99.6968 113.877Z" fill="#47B2E7"/>
</g>
<g style="mix-blend-mode:multiply" opacity="0.4">
<path d="M86.3963 107.598C86.3963 107.598 86.3647 104.52 86.201 103.453C86.0795 102.661 87.4946 107.35 87.5843 107.862C87.6741 108.374 88.1493 108.665 89.1683 107.862C90.1874 107.059 92.5951 106.521 93.9203 106.653C94.4575 106.759 94.9558 107.009 95.3618 107.376C95.705 107.624 93.9467 108.121 92.3047 108.195C91.2487 108.242 90.3141 109.779 89.7175 110.835C89.1208 111.891 87.1091 115.085 86.8451 114.789C86.6228 113.802 86.4711 112.799 86.3911 111.79C86.3176 110.394 86.3194 108.994 86.3963 107.598Z" fill="#47B2E7"/>
</g>
<path d="M102.933 108.205C102.933 108.205 101.418 113.153 100.066 113.142C99.3272 113.142 95.2246 107.514 94.9606 107.371C94.3075 107.255 93.639 107.255 92.9859 107.371C92.5952 107.466 91.2488 105.898 91.2488 105.898C91.2488 105.898 90.5518 104.272 90.8528 103.987C91.1537 103.702 92.4684 104.441 92.8592 104.441C93.2499 104.441 94.3323 104.441 94.4168 104.256C94.5012 104.071 94.3851 102.73 94.6438 102.587C94.9025 102.445 95.8424 104.393 96.1856 105.898C97.5372 107.181 99.5331 109.293 99.5859 109.114C99.6862 108.755 99.9766 107.598 99.9766 107.598C100.893 108.054 101.912 108.263 102.933 108.205Z" fill="#FBF4DB"/>
<g style="mix-blend-mode:multiply">
<path d="M94.8497 106.748C95.5942 106.094 95.9902 104.457 95.5942 104.108C95.346 103.887 94.7335 103.517 94.7282 102.926C94.7279 102.83 94.7458 102.735 94.781 102.646C94.7282 102.598 94.6807 102.577 94.6438 102.593C94.385 102.736 94.5065 104.077 94.4167 104.262C94.327 104.446 93.2498 104.446 92.8591 104.446C92.4684 104.446 91.159 103.707 90.8527 103.992C90.5465 104.277 91.2487 105.904 91.2487 105.904C91.2487 105.904 92.5951 107.488 92.9858 107.377C93.5707 107.283 94.1652 107.265 94.7546 107.324C94.7441 107.129 94.6966 106.896 94.8497 106.748Z" fill="#FBF4DB"/>
</g>
<path d="M83.4397 108.205C83.4397 108.205 84.9551 113.153 86.3067 113.142C87.0459 113.142 91.1485 107.514 91.4125 107.371C92.0656 107.255 92.7341 107.255 93.3872 107.371C93.7779 107.466 95.1243 105.898 95.1243 105.898C95.1243 105.898 95.8213 104.272 95.5203 103.987C95.2194 103.702 93.9047 104.441 93.5139 104.441C93.1232 104.441 92.0408 104.441 91.9563 104.256C91.8719 104.071 91.988 102.73 91.7293 102.587C91.4706 102.445 90.5307 104.393 90.1875 105.898C88.8359 107.181 86.84 109.293 86.7872 109.114C86.6869 108.755 86.3965 107.598 86.3965 107.598C85.4803 108.054 84.4613 108.263 83.4397 108.205Z" fill="#FBF4DB"/>
<path d="M90.858 145.673C90.821 145.066 92.1727 145.779 92.97 145.615C93.2551 145.911 93.7408 147.453 93.197 148.134C92.5264 148.958 90.9636 152.78 90.2032 152.463C88.8885 151.93 91.048 148.958 90.858 145.673Z" fill="#1A3360"/>
<path d="M93.8623 144.136C93.8623 144.136 95.6627 144.194 95.7525 143.856C95.8423 143.518 95.6627 144.194 95.6627 144.194C95.6627 144.194 96.4442 148.07 96.2488 149.87C96.0535 151.671 94.0418 146.565 93.7144 146.111C93.3871 145.657 93.8623 144.136 93.8623 144.136Z" fill="#1A3360"/>
<path d="M52.7523 170.31C51.1934 170.31 49.6535 169.967 48.2417 169.306C46.8298 168.645 45.5805 167.682 44.5822 166.484C43.5838 165.287 42.8608 163.885 42.4642 162.377C42.0677 160.869 42.0073 159.293 42.2874 157.759L68.0274 16.6726C68.4726 14.2217 69.7641 12.0049 71.6767 10.4089C73.5892 8.81288 76.0013 7.93891 78.4923 7.93945C80.0495 7.94271 81.587 8.28774 82.9962 8.9502C84.4054 9.61265 85.6521 10.5764 86.6481 11.7733C87.6441 12.9703 88.3653 14.3713 88.7607 15.8774C89.156 17.3836 89.2159 18.9582 88.9362 20.49L63.2173 161.582C62.7699 164.032 61.4777 166.247 59.5655 167.841C57.6533 169.436 55.2423 170.31 52.7523 170.31Z" fill="#4AB8B8"/>
<path d="M137.211 170.31C135.652 170.31 134.112 169.967 132.7 169.306C131.289 168.645 130.039 167.682 129.041 166.484C128.043 165.287 127.32 163.885 126.923 162.377C126.526 160.869 126.466 159.293 126.746 157.759L152.481 16.6726C152.928 14.2217 154.221 12.0054 156.134 10.4097C158.047 8.81389 160.46 7.93974 162.951 7.93945C164.51 7.94055 166.049 8.28393 167.46 8.94533C168.872 9.60674 170.121 10.57 171.119 11.7671C172.117 12.9642 172.84 14.3659 173.237 15.8732C173.634 17.3805 173.695 18.9565 173.416 20.49L147.676 161.582C147.229 164.032 145.936 166.247 144.024 167.841C142.112 169.436 139.701 170.31 137.211 170.31Z" fill="#4AB8B8"/>
<path d="M181.194 125.071C180.74 127.562 179.426 129.815 177.482 131.437C175.538 133.059 173.086 133.947 170.554 133.947H30.175C28.5905 133.946 27.0255 133.597 25.5907 132.925C24.1558 132.253 22.8861 131.274 21.8712 130.057C20.8564 128.84 20.1212 127.416 19.7176 125.883C19.3141 124.351 19.252 122.749 19.5358 121.19C19.9905 118.7 21.3042 116.447 23.2482 114.826C25.1922 113.204 27.6433 112.315 30.175 112.314H170.554C172.139 112.314 173.705 112.662 175.14 113.334C176.575 114.006 177.845 114.985 178.86 116.202C179.875 117.419 180.611 118.844 181.014 120.377C181.417 121.909 181.478 123.512 181.194 125.071Z" fill="#4AB8B8"/>
<path d="M193.961 55.0989C193.506 57.5893 192.192 59.8415 190.248 61.4633C188.304 63.085 185.853 63.9737 183.321 63.9745H42.9367C41.3522 63.9739 39.7873 63.6252 38.3524 62.9531C36.9175 62.281 35.6478 61.302 34.6329 60.0852C33.6181 58.8684 32.8829 57.4435 32.4793 55.9113C32.0758 54.3791 32.0137 52.7769 32.2975 51.2181C32.7533 48.7285 34.0675 46.4776 36.0113 44.8569C37.9552 43.2362 40.4058 42.3483 42.9367 42.3477H183.321C184.906 42.3475 186.47 42.6955 187.905 43.367C189.34 44.0385 190.61 45.017 191.625 46.2334C192.64 47.4498 193.375 48.8744 193.779 50.4064C194.182 51.9383 194.244 53.5403 193.961 55.0989Z" fill="#4AB8B8"/>
<path d="M24.6415 128.824C24.6415 128.824 21.727 143.392 21.8801 144.532C22.0332 145.673 37.7201 168.371 37.7201 168.371C38.1767 167.816 38.665 167.287 39.1827 166.787C39.6209 166.439 35.9196 154.643 30.0588 146.28C30.0588 146.28 31.5742 129.864 31.4527 128.75C31.3313 127.636 24.6415 128.824 24.6415 128.824Z" fill="#6379C6"/>
<path d="M38.8183 127.905C38.8183 127.905 39.8743 131.168 34.193 147.325C32.609 155.076 27.4505 168.281 26.0249 172.891L23.7861 172.421C26.1516 126.575 29.3882 126.606 28.8761 128.687C29.309 126.929 38.8183 127.905 38.8183 127.905Z" fill="#6379C6"/>
<g style="mix-blend-mode:multiply" opacity="0.5">
<path d="M28.5169 128.777C28.5169 128.777 25.4334 148.039 25.2539 150.262C25.2539 150.262 27.3078 129.818 27.5929 128.777H28.5169Z" fill="#6379C6"/>
</g>
<path d="M14.3931 107.198L16.7955 115.662L20.5707 115.139L18.8969 106.062L14.3931 107.198Z" fill="#332751"/>
<path d="M19.557 106.062L20.8875 114.394L20.5707 115.139L18.897 106.062H19.557Z" fill="#2F4C69"/>
<path d="M17.35 108.481C17.3486 108.597 17.3012 108.709 17.2182 108.791C17.1352 108.873 17.0232 108.919 16.9064 108.919C16.7978 108.907 16.6974 108.855 16.6245 108.774C16.5516 108.693 16.5112 108.587 16.5112 108.478C16.5112 108.369 16.5516 108.263 16.6245 108.182C16.6974 108.101 16.7978 108.049 16.9064 108.037C16.9647 108.037 17.0223 108.049 17.0762 108.071C17.13 108.093 17.1789 108.126 17.22 108.167C17.2612 108.208 17.2939 108.257 17.3162 108.311C17.3385 108.365 17.35 108.422 17.35 108.481Z" fill="#2F4C69"/>
<path d="M15.3435 111.944C15.3435 111.944 15.7818 111.87 15.8715 112.472C15.9613 113.074 16.22 113.143 16.2042 113C16.0246 111.416 16.6318 110.112 16.8853 110.007C17.1387 109.901 19.029 110.814 19.124 110.931C19.5517 111.459 19.6837 112.229 19.9952 112.921C20.3067 113.613 19.8738 113.792 19.3827 115.197C19.2824 115.492 21.9752 119.151 21.9752 119.151L22.387 117.356L25.555 118.412L24.9162 122.811C24.9162 122.811 23.8232 125.699 21.8115 124.495C19.029 122.832 14.8736 112.958 15.3435 111.944Z" fill="#FBF4DB"/>
<g style="mix-blend-mode:multiply">
<path d="M19.4037 115.207C19.1133 115.27 18.8757 115.915 17.7299 115.936C17.4184 115.936 20.6762 118 21.2042 118C19.5251 115.767 19.277 115.233 19.4037 115.207Z" fill="#FBF4DB"/>
</g>
<g style="mix-blend-mode:multiply">
<path d="M21.9963 119.162C21.9963 119.162 23.6279 120.049 24.1083 120.799C24.4811 121.441 24.7754 122.125 24.9848 122.837L25.5762 118.333L23.4642 117.684C23.6598 118.298 23.7752 118.935 23.8074 119.579C23.2351 119.328 22.6208 119.187 21.9963 119.162Z" fill="#FBF4DB"/>
</g>
<path d="M23.9551 97.4715C23.9551 97.4715 25.3068 103.221 27.0228 104.177C28.7388 105.133 29.3882 104.615 29.7684 104.805C29.9162 104.879 29.8951 105.455 29.6944 106.358C29.4093 107.672 29.2351 109.436 29.2351 109.436C29.2351 109.436 34.3408 107.762 34.5151 106.711C34.6893 105.661 34.5151 100.233 34.5151 100.233C34.5151 100.233 35.8509 97.1864 35.2754 95.9456C34.6999 94.7048 31.5794 92.1387 31.5794 92.1387C31.5794 92.1387 24.52 92.7089 23.9551 97.4715Z" fill="#FBF4DB"/>
<path d="M19.8948 94.3301C19.8948 94.3301 20.3383 97.4981 22.3711 98.0261C23.6858 98.3587 24.9108 98.9184 27.4505 97.4558C29.9901 95.9933 30.4337 94.1506 31.4527 94.4093C32.4717 94.668 32.0229 97.0493 32.91 98.3851H33.3535C33.3535 98.3851 32.7199 96.4421 33.3535 95.8665C33.9871 95.291 34.7527 96.949 34.7527 97.7093C34.7527 98.4696 34.1138 99.5414 34.5626 101.263C34.7618 100.471 35.0542 99.705 35.4338 98.9818C36.1044 97.8994 36.2628 94.8528 36.1308 93.7704C35.9988 92.688 35.7084 89.9635 34.2511 89.5094C33.0314 89.1293 32.3397 89.1293 31.4633 89.8632C31.4633 89.8632 28.4009 88.0786 27.0703 89.2454C25.7397 90.4123 21.6689 94.7525 19.8948 94.3301Z" fill="#AD7150"/>
<path d="M29.8475 105.586C29.8475 105.586 29.1347 108.918 30.761 108.263C32.3872 107.608 34.42 106.061 34.6101 103.807C34.6101 103.807 40.3864 104.013 41.6325 104.556C42.8786 105.1 48.3698 107.577 49.4574 108.881C49.4574 108.881 46.4373 111.906 45.1859 113.422L41.3474 113.348C41.3474 113.348 38.6018 126.981 38.8182 127.905C39.0347 128.829 24.6784 129.409 24.52 129.462C24.3616 129.515 24.8368 118.105 24.7312 118.142C24.6256 118.179 21.5051 117.054 21.5051 117.054C21.5051 117.054 23.7755 108.606 24.3722 108.02C24.9688 107.434 29.8475 105.586 29.8475 105.586Z" fill="#FF5D72"/>
<path d="M23.7861 172.422C23.7861 172.422 18.5905 173.061 17.5609 173.763C16.5313 174.465 24.9529 175.474 26.0089 174.935C27.0649 174.397 26.0459 172.892 26.0459 172.892L23.7861 172.422Z" fill="#1A3360"/>
<path d="M37.72 168.371C37.72 168.371 37.9734 171.803 37.72 172.421C37.4665 173.039 35.4021 173.356 35.7294 173.762C36.0568 174.169 39.0241 174.169 39.2195 173.762C39.4149 173.356 41.7328 167.912 41.1361 167.426C40.5396 167.07 39.8732 166.847 39.1825 166.771L37.72 168.371Z" fill="#1A3360"/>
<g style="mix-blend-mode:multiply">
<path d="M29.7683 104.785C29.7683 104.785 32.2552 104.004 32.9363 101.76C32.9363 104.5 30.9193 106.242 29.668 106.918L29.7683 104.785Z" fill="#FBF4DB"/>
</g>
<g style="mix-blend-mode:multiply" opacity="0.5">
<path d="M45.9516 110.207C45.9516 110.207 42.8152 111.395 42.0127 110.207L41.3474 113.375H44.5154L45.9516 110.207Z" fill="#FF5D72"/>
</g>
<g style="mix-blend-mode:multiply" opacity="0.5">
<path d="M41.1152 114.215C41.1152 114.215 39.3358 120.688 34.4201 121.533C31.7379 121.998 35.8774 122.399 37.5142 121.533C39.151 120.667 36.7803 123.645 35.4339 124.094C34.0875 124.543 35.8933 124.917 36.4899 124.817C37.0865 124.717 35.587 126.042 36.3473 126.401L38.7867 127.615L41.1152 114.215Z" fill="#FF5D72"/>
</g>
<path d="M47.4141 108.856C44.3041 111.079 39.8742 119.257 39.1561 120.672C38.438 122.087 37.5721 122.668 37.7622 124.653C37.7622 124.78 38.4064 124.886 38.4697 125.129C38.6756 125.936 39.5257 127.557 39.89 127.631C40.3388 127.726 41.4424 125.968 41.4318 125.672C41.4212 125.377 41.2576 123.698 41.8648 123.18C42.34 122.779 42.1182 121.021 42.1182 121.021C42.1182 121.021 49.4099 114.104 50.392 113.439C52.7205 111.865 50.3022 106.786 47.4141 108.856Z" fill="#FBF4DB"/>
<g style="mix-blend-mode:multiply" opacity="0.5">
<path d="M33.2058 151.348L30.9829 158.528L35.7349 165.435C35.7349 165.435 36.02 155.746 33.2058 151.348Z" fill="#6379C6"/>
</g>
<path d="M154.075 40.7109C154.075 40.7109 158.415 42.7965 158.173 43.3879C157.93 43.9793 151.309 42.6434 151.309 42.6434L150.828 40.7109H154.075Z" fill="#1B374B"/>
<path d="M141.298 26.202C141.298 26.202 150.68 22.5747 152.914 24.4702C155.147 26.3657 154.097 40.7115 154.097 40.7115H151.731C151.731 40.7115 149.049 31.7988 149.049 30.1515C147.08 31.8833 142.977 35.9067 141.319 35.7483C139.661 35.5899 141.298 26.202 141.298 26.202Z" fill="#3B2E76"/>
<path d="M139.698 33.1932C139.698 33.1932 153.363 38.8692 153.468 40.7119C153.574 42.5546 145.506 59.1919 145.506 59.1919C145.506 59.1919 143.885 59.8202 143.193 58.7695L146.108 43.9855C146.108 43.9855 133.336 44.8356 132.153 38.4784C130.97 32.1213 139.698 33.1932 139.698 33.1932Z" fill="#3B2E76"/>
<path d="M141.784 16.8613C141.784 16.8613 150.232 19.1423 151.314 20.0927C152.396 21.0431 158.178 25.0981 158.178 25.0981L157.048 27.358L149.735 23.9999C149.735 23.9999 143.193 24.6493 142.871 24.7285C142.549 24.8077 141.234 17.7853 141.784 16.8613Z" fill="#FFB15F"/>
<path d="M148.368 5.75857C149.033 7.30033 149.186 12.8496 148.869 13.008C148.553 13.1664 147.924 12.9024 147.66 13.3248C147.396 13.7472 146.319 16.3714 144.846 15.9648C144.039 15.7445 143.257 15.4419 142.512 15.0619L143.009 18.383L138.067 16.4347C138.157 14.7904 138.157 13.1423 138.067 11.4979C137.718 9.01633 138.463 5.07217 140.854 3.54625C141.474 3.12452 142.179 2.84548 142.919 2.72926C143.659 2.61304 144.416 2.66252 145.135 2.87416C145.853 3.08579 146.516 3.45429 147.075 3.95308C147.634 4.45188 148.076 5.06853 148.368 5.75857Z" fill="#FBF4DB"/>
<path d="M152.47 2.26257C152.581 3.44001 152.681 5.48865 151.156 6.80337C149.63 8.11809 149.999 8.27649 146.53 7.94913C143.061 7.62177 142.306 6.89313 141.535 6.09057C141.535 6.09057 141.905 8.00193 141.535 8.87841C141.166 9.75489 141.171 10.0189 141.271 10.4043C141.372 10.7898 140.643 10.4624 140.485 9.87633C140.326 9.29025 139.429 7.76433 138.753 9.34833C138.278 10.436 139.128 11.0854 138.895 12.6958C138.779 13.5248 138.151 14.2006 138.14 13.9736C137.987 11.2386 136.794 11.3336 136.229 8.87313C135.543 5.92689 136.593 2.93841 138.959 1.79265C138.959 1.79265 143.273 -0.937114 145.796 0.974246C148.32 2.88561 148.737 0.974245 148.896 0.293125C149.054 -0.387995 150.21 2.88033 150.712 2.26257C151.214 1.64481 152.296 0.171687 152.47 2.26257Z" fill="#788FFF"/>
<path d="M142.481 17.4534C143.493 18.4716 144.126 19.8057 144.276 21.2339C144.455 23.5201 143.288 32.3219 142.755 32.3219C140.262 32.7498 137.87 33.6321 135.696 34.9249C132.934 36.6568 133.304 37.8448 132.042 37.4065C131.113 37.0792 131.15 33.8531 131.282 30.4422C131.414 27.0313 132.042 24.2065 132.042 23.4092C128.874 23.7841 126.762 19.6604 127.966 18.1715C130.331 15.2041 134.592 13.2716 138.14 13.9475C137.797 16.2548 140.786 16.1809 142.481 17.4534Z" fill="#FFB15F"/>
<path d="M135.258 25.0555C135.258 25.0555 138.067 34.6175 139.645 35.5627C141.224 36.5078 150.448 38.8732 150.448 38.8732L151.314 37.379L143.114 31.7611L141.784 22.5475C141.784 22.5475 135.574 21.8452 135.258 25.0555Z" fill="#FFB15F"/>
<path d="M151.314 37.4004C152.042 37.5325 152.761 37.7088 153.468 37.9284C153.695 38.071 153.785 38.8735 153.785 38.8735C153.785 38.8735 154.783 39.7183 154.783 40.505C154.783 41.2917 154.123 42.2527 153.679 42.9233C153.468 43.2401 152.486 43.5357 152.417 43.2559C152.259 42.617 152.919 41.1861 152.365 40.6581L150.448 38.8735L151.314 37.4004Z" fill="#FBF4DB"/>
<path d="M158.173 25.0992L157.048 27.359C157.048 27.359 158.062 27.5438 158.373 27.5438C158.685 27.5438 160.781 24.2702 160.781 24.2702C160.781 24.2702 160.702 23.4043 160.227 23.4043C159.751 23.4043 158.173 25.0992 158.173 25.0992Z" fill="#FBF4DB"/>
<path d="M164.715 21.6674L161.996 20.8438L157.661 28.7638L159.25 30.4375L164.715 21.6674Z" fill="#7FC9FF"/>
<path d="M164.715 21.666L165.243 22.4844L159.957 30.6895L159.25 30.4361L164.715 21.666Z" fill="#7F9AFF"/>
<path d="M162.745 27.3576C162.745 27.3576 161.663 26.1432 160.591 26.1485C159.519 26.1537 159.804 27.3576 159.804 27.3576C159.556 27.9054 159.37 28.4792 159.25 29.0683C159.25 29.4854 160.38 30.4569 160.591 30.4305C160.802 30.4041 162.856 28.4875 162.745 27.3576Z" fill="#FBF4DB"/>
<path d="M145.506 59.2017L143.193 58.7793C142.946 59.1958 142.783 59.6568 142.713 60.1363C142.555 61.0286 145.078 65.5747 146.287 65.9443C147.497 66.3139 146.351 64.1279 145.506 59.2017Z" fill="#1B374B"/>
<g style="mix-blend-mode:multiply" opacity="0.6">
<path d="M138.32 33.5995C138.32 33.5995 134.745 25.5317 135.464 22.8125C135.464 22.8125 134.017 28.7208 137.634 33.9005L138.32 33.5995Z" fill="#FFB15F"/>
</g>
<g style="mix-blend-mode:multiply" opacity="0.6">
<path d="M149.735 24.0003C149.627 23.0999 149.657 22.1882 149.825 21.2969C149.514 21.2389 149.065 23.6307 148.521 23.6201C145.981 23.5726 145.723 21.8619 143.695 19.5176C144.276 20.3043 144.788 23.3403 144.133 24.5758L149.735 24.0003Z" fill="#FFB15F"/>
</g>
<g style="mix-blend-mode:multiply" opacity="0.6">
<path d="M142.755 30.3888C142.755 30.3888 141.06 23.1816 139.555 20.8848C139.555 20.8848 142.85 26.0064 143.088 31.5873L142.755 30.3888Z" fill="#FFB15F"/>
</g>
<g style="mix-blend-mode:multiply" opacity="0.6">
<path d="M138.114 14.3118C138.114 14.3118 133.816 14.1006 131.15 15.9803C128.779 17.654 128.114 18.6203 128.9 18.5411C129.687 18.4619 133.478 14.1692 139.429 16.0331C139.429 16.0331 137.987 15.4892 138.114 14.3118Z" fill="#FFB15F"/>
</g>
<g style="mix-blend-mode:multiply" opacity="0.6">
<path d="M132.042 23.404C132.042 23.404 134.392 21.8834 135.258 20.3469C136.124 18.8104 137.898 16.4661 141.319 17.7069C141.319 17.7069 137.987 16.8621 136.266 19.9034C135.098 21.9053 133.594 23.6914 131.82 25.1834L132.042 23.404Z" fill="#FFB15F"/>
</g>
<g style="mix-blend-mode:multiply">
<path d="M142.512 15.0499C142.512 15.0499 140.717 14.1312 140.432 12.8957C140.283 12.4514 140.206 11.9861 140.205 11.5176C140.079 12.3441 140.117 13.1872 140.316 13.9992C140.448 14.5272 142.718 16.4227 142.718 16.4227L142.512 15.0499Z" fill="#FBF4DB"/>
</g>
<path d="M133.848 160.91C133.848 160.91 133.695 168.007 137.058 168.883C143.637 170.594 156.198 163.001 157.745 163.239C159.292 163.476 174.905 167.215 174.905 167.215L175.47 165.277C175.47 165.277 157.212 157.885 156.911 157.885C156.61 157.885 140.274 157.932 138.251 158.767C136.229 159.601 133.848 160.91 133.848 160.91Z" fill="#A52A87"/>
<path d="M137.903 160.071C137.903 160.071 139.08 165.192 142.296 166.502C145.511 167.811 153.115 167.178 154.662 167.42C156.209 167.663 172.614 175.409 172.614 175.409L174.53 172.811C174.53 172.811 156.858 162.135 156.578 162.135C156.298 162.135 146.435 156.464 144.434 157.299C142.433 158.133 137.903 160.071 137.903 160.071Z" fill="#A52A87"/>
<path d="M144.26 126.222C144.26 126.222 141.578 132.468 143.732 133.957C145.886 135.446 153.167 135.325 150.189 138.836C147.211 142.347 130.791 142.252 129.597 137.014C128.404 131.776 132.464 122.737 144.26 126.222Z" fill="#FFD54E"/>
<g style="mix-blend-mode:multiply" opacity="0.5">
<path d="M136.218 134.447C135.659 131.654 136.519 127.678 139.186 125.439C131.313 125.519 128.626 132.615 129.624 137.013C130.812 142.251 147.238 142.346 150.216 138.835C150.575 138.464 150.817 137.996 150.913 137.488C146.372 139.215 137.021 138.476 136.218 134.447Z" fill="#FFD54E"/>
</g>
<path d="M142.349 130.657C140.949 133.244 139.181 135.103 138.394 135.372C137.77 135.588 137.103 135.647 136.451 135.546L137.322 137.748C137.322 137.748 140.928 138.06 141.05 138.656C141.171 139.253 134.872 145.029 133.848 145.33C132.824 145.631 132.354 140.129 131.995 137.69L133.214 137.653C133.352 136.209 133.255 134.753 132.929 133.339C129.941 131.275 134.883 124.4 136.256 123.804C137.628 123.207 144.799 126.127 142.349 130.657Z" fill="#FBF4DB"/>
<path d="M133.51 128.545C129.133 139.015 133.864 139.274 133.124 142.151C131.403 148.846 127.559 147.663 124.756 144.955C115.838 136.343 127.248 119.083 133.953 121.147C142.18 117.309 148.737 122.895 146.567 127.024C145.216 129.585 141.752 129.574 140.395 129.358C134.444 128.381 134.709 125.656 133.51 128.545Z" fill="#FFD54E"/>
<path d="M132.232 137.652C132.232 137.652 133.536 141.85 137.185 141.707C139.297 141.628 138.769 139.622 137.882 137.805C137.882 137.805 140.215 137.652 141.71 138.861C143.035 139.949 146.937 144.854 146.937 144.854C146.937 144.854 147.343 149.68 146.377 149.913C146.008 150.002 142.153 145.831 142.475 146.217C144.191 148.329 140.601 148.635 144.761 156.777C145.21 157.653 134.344 161.212 133.895 162.194C133.446 163.176 131.73 152.188 131.16 151.856C130.542 152.384 127.607 151.523 127.607 151.523C127.607 151.523 125.284 139.432 132.232 137.652Z" fill="#FB85D1"/>
<g style="mix-blend-mode:multiply" opacity="0.5">
<path d="M144.783 156.803C142.987 153.841 142.417 150.298 142.782 148.883C142.38 149.939 141.546 149.939 140.622 149.939C139.983 149.939 138.785 150.293 137.686 150.388C140.622 151.032 142.079 152.468 142.523 153.519C143.869 156.729 142.47 157.563 142.027 157.642C141.861 157.736 141.683 157.807 141.499 157.854C141.324 157.91 141.136 157.914 140.959 157.865C140.781 157.816 140.622 157.717 140.501 157.579C140.374 157.579 140.252 157.526 140.126 157.5C140.115 157.619 140.08 157.734 140.024 157.84C139.968 157.946 139.892 158.039 139.799 158.115C139.707 158.191 139.601 158.248 139.486 158.283C139.372 158.318 139.252 158.33 139.133 158.318C137.853 158.27 136.595 157.963 135.437 157.415C135.332 157.364 135.237 157.294 135.157 157.209C134.97 157.305 134.761 157.348 134.551 157.333C134.341 157.319 134.14 157.247 133.968 157.127C133.796 157.006 133.66 156.841 133.574 156.649C133.489 156.457 133.458 156.246 133.483 156.037C133.534 155.681 133.69 155.348 133.932 155.081C134.174 154.815 134.491 154.627 134.84 154.543C134.229 154.156 133.638 153.736 133.072 153.286C132.311 152.727 131.683 152.005 131.234 151.174C131.234 151.428 131.234 151.702 131.197 151.929C131.799 152.611 133.468 163.202 133.906 162.236C134.344 161.27 145.295 157.648 144.783 156.803Z" fill="#FB85D1"/>
</g>
<g style="mix-blend-mode:multiply" opacity="0.5">
<path d="M146.958 144.881C146.958 144.881 145.902 143.55 144.698 142.119C144.982 142.785 145.1 143.51 145.041 144.231C145.041 144.393 145.003 144.552 144.93 144.697C144.858 144.841 144.754 144.967 144.625 145.065C144.497 145.163 144.348 145.23 144.189 145.261C144.03 145.293 143.867 145.287 143.711 145.245C142.422 144.811 141.328 143.936 140.622 142.774C140.77 142.975 141.81 145.134 142.206 145.989C142.254 146.053 142.966 146.781 143.838 147.674C144.894 148.73 146.171 149.997 146.377 149.949C147.365 149.707 146.958 144.881 146.958 144.881Z" fill="#FB85D1"/>
</g>
<path d="M175.977 169.417C174.641 170.6 171.41 173.573 172.107 175.41C172.804 177.248 174.995 176.54 175.47 175.996C176.906 174.37 178.95 169.523 178.77 168.229C178.591 166.936 177.218 168.319 175.977 169.417Z" fill="#FB85D1"/>
<g style="mix-blend-mode:multiply" opacity="0.5">
<path d="M175.47 175.996C176.906 174.37 178.949 169.523 178.77 168.229C178.722 167.86 178.569 167.701 178.358 167.701C177.738 168.248 177.16 168.839 176.626 169.47C175.343 170.864 172.254 174.359 173.057 176.387C173.07 176.407 173.08 176.428 173.089 176.45C173.491 176.584 173.922 176.613 174.339 176.534C174.755 176.454 175.145 176.269 175.47 175.996Z" fill="#FB85D1"/>
</g>
<path d="M174.905 167.214C174.905 167.214 174.25 166 175.913 163.782C177.577 161.565 178.099 159.843 178.099 158.951C178.099 158.059 179.182 158.756 179.467 160.741C179.852 163.392 177.461 169.654 174.905 167.214Z" fill="#FB85D1"/>
<path d="M127.628 151.549C127.628 151.549 128.731 156.137 128.995 156.301C129.259 156.465 142.195 160.245 142.855 159.754C144.292 158.666 146.398 158.35 147.903 157.97C149.408 157.589 145.891 155.974 144.735 156.301C144.012 156.62 143.357 157.073 142.803 157.637L131.984 154.316L131.213 151.533C130.027 151.733 128.816 151.738 127.628 151.549Z" fill="#FBF4DB"/>
<path d="M144.212 132.436L148.188 134.532L145.179 141.406L142.18 140.662L144.212 132.436Z" fill="#A52A87"/>
<path d="M144.212 132.436L143.648 132.441L141.768 140.039L142.18 140.662L144.212 132.436Z" fill="#FB85D1"/>
<path d="M146.071 135.483C145.986 135.826 145.712 136.053 145.458 136.011C145.323 135.952 145.215 135.842 145.158 135.706C145.101 135.569 145.099 135.415 145.152 135.277C145.237 134.934 145.511 134.707 145.765 134.749C145.9 134.809 146.008 134.918 146.065 135.055C146.122 135.191 146.124 135.345 146.071 135.483Z" fill="#FB85D1"/>
<path d="M146.229 138.011C146.229 138.011 147.861 135.81 147.502 137.483C147.143 139.157 147.945 142.172 147.945 142.172C147.945 142.172 152.697 153.086 150.163 153.223C149.513 153.272 148.864 153.129 148.294 152.813C147.725 152.497 147.26 152.021 146.958 151.444C146.309 150.022 145.993 148.471 146.034 146.908C146.214 143.767 145.443 142.484 144.862 141.766C144.281 141.047 143.304 140.382 142.855 139.743C142.407 139.104 141.995 137.753 141.578 137.103C141.161 136.454 144.862 138.613 144.862 138.613L146.229 138.011Z" fill="#FBF4DB"/>
<g style="mix-blend-mode:multiply" opacity="0.5">
<path d="M147.444 167.315C147.444 167.315 156.657 163.619 157.508 163.508C158.024 163.432 158.549 163.432 159.065 163.508L160.755 164.538C160.755 164.538 158.553 164.285 157.508 165.092C156.462 165.9 154.662 167.421 154.662 167.421L147.444 167.315Z" fill="#A52A87"/>
</g>
<path d="M132.459 131.369C132.459 131.369 130.189 136.586 132.845 140.382C135.5 144.178 133.6 147.542 131.556 147.969C129.513 148.397 126.672 147.489 124.756 144.933C122.839 142.378 130.791 132.029 132.459 131.369Z" fill="#FFD54E"/>
<g style="mix-blend-mode:multiply">
<path d="M136.456 135.546C136.456 135.546 134.45 134.844 134.154 134.205L137.322 137.748L136.456 135.546Z" fill="#FBF4DB"/>
</g>
<path d="M172.888 30.5062C172.888 30.5062 173.67 28.1196 173.237 27.5177C172.181 26.0287 169.931 21.018 175.681 18.8321C181.748 16.5194 186.727 22.1849 183.511 27.0689C182.107 29.1809 178.506 29.5505 176.061 29.0753C175.306 28.9274 172.888 30.5062 172.888 30.5062Z" fill="#FFB15F"/>
<path d="M179.546 24.3234H180.528V25.1471H179.472L179.319 26.3509H178.469L178.617 25.1471H177.513L177.36 26.3509H176.515L176.669 25.1471H175.681V24.3234H176.764L176.922 23.1037H175.935V22.28H177.022L177.17 21.0762H178.015L177.867 22.28H178.976L179.124 21.0762H179.969L179.815 22.28H180.808V23.1037H179.699L179.546 24.3234ZM178.696 24.3234L178.854 23.1037H177.746L177.587 24.3234H178.696Z" fill="#EBFFFF"/>
<path d="M106.165 89.0974C106.165 89.0974 106.941 86.7055 106.508 86.1036C105.452 84.6147 103.208 79.6039 108.958 77.418C115.025 75.1054 120.004 80.7708 116.788 85.6548C115.384 87.7668 111.777 88.1364 109.333 87.6612C108.573 87.5134 106.165 89.0974 106.165 89.0974Z" fill="#47B2E7"/>
<path d="M112.812 82.9093H113.789V83.733H112.733L112.585 84.9368H111.73L111.883 83.733H110.774L110.626 84.9368H109.781L109.929 83.733H108.942V82.9093H110.03L110.188 81.6896H109.201V80.8659H110.257L110.41 79.6621H111.255L111.112 80.8659H112.221L112.374 79.6621H113.224L113.076 80.8659H114.063V81.6896H112.96L112.812 82.9093ZM111.962 82.9093L112.12 81.6896H111.012L110.853 82.9093H111.962Z" fill="#EBFFFF"/>
<path d="M13.4005 94.9374C13.4005 94.9374 12.6243 92.5455 13.0573 91.9489C14.1133 90.4547 16.3573 85.4492 10.6073 83.258C4.54591 80.9507 -0.433135 86.6108 2.77711 91.5001C4.18159 93.6121 7.78783 93.9817 10.2325 93.5065C10.9928 93.3587 13.4005 94.9374 13.4005 94.9374Z" fill="#FF5D72"/>
<path d="M9.4086 88.755H10.3854V89.5734H9.3294L9.18156 90.7825H8.30508L8.4582 89.5734H7.3494L7.20156 90.7825H6.35676L6.5046 89.5734H5.51196V88.755H6.59964L6.75804 87.5353H5.77596V86.7117H6.83196L6.98508 85.5078H7.82988L7.67676 86.7117H8.78556L8.93868 85.5078H9.7782L9.63036 86.7117H10.6177V87.5353H9.55644L9.4086 88.755ZM8.55324 88.755L8.71164 87.5353H7.62396L7.46556 88.755H8.55324Z" fill="#EBFFFF"/>
<path d="M154.793 130.92C154.793 130.92 155.575 128.528 155.142 127.926C154.086 126.437 151.837 121.426 157.587 119.24C163.653 116.933 168.632 122.593 165.417 127.477C164.012 129.589 160.411 129.964 157.967 129.489C157.201 129.336 154.793 130.92 154.793 130.92Z" fill="#FB85D1"/>
<path d="M161.441 124.737H162.423V125.555H161.367L161.214 126.764H160.364L160.512 125.555H159.408L159.255 126.764H158.41L158.564 125.555H157.576V124.737H158.632L158.791 123.512H157.803V122.693H158.891L159.039 121.484H159.884L159.736 122.693H160.844L160.992 121.484H161.837L161.684 122.693H162.671V123.512H161.589L161.441 124.737ZM160.591 124.737L160.749 123.512H159.641L159.482 124.737H160.591Z" fill="#EBFFFF"/>
</svg>
