<svg width="80" height="81" viewBox="0 0 80 81" fill="none" xmlns="http://www.w3.org/2000/svg">
<g clip-path="url(#clip0_1525_9496)">
<path d="M13.7324 33.2576C17.3709 33.2576 20.3205 30.318 20.3205 26.6918C20.3205 23.0656 17.3709 20.126 13.7324 20.126C10.0939 20.126 7.14429 23.0656 7.14429 26.6918C7.14429 30.318 10.0939 33.2576 13.7324 33.2576Z" fill="white"/>
<path d="M18.2341 18.4651C18.4286 18.464 18.6165 18.3939 18.7642 18.2674C20.797 16.5472 23.3507 15.5633 26.0121 15.4748C28.6736 15.3863 31.287 16.1983 33.4296 17.7796C34.5107 18.5789 36.0267 18.5729 36.9984 17.6473C37.2872 17.3774 37.5133 17.0474 37.6609 16.6807C37.8086 16.314 37.874 15.9194 37.8528 15.5246C37.8315 15.1299 37.724 14.7446 37.5379 14.3959C37.3517 14.0471 37.0915 13.7434 36.7754 13.506C34.9415 12.1308 32.8523 11.1341 30.6295 10.5742C28.4068 10.0143 26.0948 9.90223 23.8282 10.2446C21.5617 10.587 19.386 11.3769 17.4277 12.5685C15.4695 13.76 13.768 15.3292 12.4222 17.1848C12.3353 17.3069 12.2838 17.4506 12.2734 17.6C12.2631 17.7495 12.2942 17.8989 12.3635 18.0318C12.4327 18.1647 12.5373 18.2758 12.6658 18.3529C12.7942 18.4301 12.9415 18.4702 13.0913 18.4689L18.2341 18.4651Z" fill="white"/>
<path d="M50.1063 21.4535C49.584 20.9568 48.8862 20.6873 48.1657 20.7038C47.4451 20.7204 46.7605 21.0218 46.2616 21.542C45.7174 22.11 44.6899 23.3911 42.9196 25.6059C40.1605 29.058 35.5434 34.8349 33.7382 36.2825C31.9709 37.7004 29.8587 39.0119 26.4007 39.0119C24.765 39.0127 23.1469 38.6733 21.6494 38.0152C20.1519 37.3572 18.8075 36.395 17.7018 35.1896C17.625 35.1046 17.5313 35.0365 17.4267 34.9896C17.3221 34.9428 17.2089 34.9182 17.0944 34.9175H12.3583C12.214 34.9169 12.0721 34.9547 11.9472 35.027C11.8224 35.0993 11.719 35.2036 11.6477 35.329C11.5764 35.4545 11.5398 35.5967 11.5416 35.741C11.5434 35.8853 11.5835 36.0265 11.6579 36.1502C13.1986 38.6792 15.364 40.7694 17.9459 42.2198C20.5277 43.6701 23.4393 44.4319 26.4007 44.432C31.5873 44.432 34.8691 42.3331 37.1479 40.5048C39.2505 38.8186 42.9323 34.2885 47.1732 28.9807C48.4609 27.3703 49.7925 25.7048 50.1947 25.2885C50.4418 25.0314 50.6356 24.7281 50.765 24.3958C50.8944 24.0636 50.9567 23.709 50.9485 23.3526C50.9403 22.9961 50.8616 22.6448 50.7171 22.3189C50.5725 21.993 50.3649 21.6989 50.1063 21.4535Z" fill="white"/>
<path d="M66.0312 34.3533C69.6697 34.3533 72.6193 31.4137 72.6193 27.7875C72.6193 24.1613 69.6697 21.2217 66.0312 21.2217C62.3927 21.2217 59.4431 24.1613 59.4431 27.7875C59.4431 31.4137 62.3927 34.3533 66.0312 34.3533Z" fill="white"/>
<path d="M61.5293 36.0137C61.3348 36.0148 61.147 36.0849 60.9992 36.2115C58.9665 37.9316 56.4131 38.9157 53.7518 39.0048C51.0905 39.0938 48.4769 38.2826 46.3338 36.7022C45.2528 35.9029 43.7368 35.9089 42.765 36.8345C42.4762 37.1045 42.2501 37.4344 42.1025 37.8011C41.9549 38.1678 41.8894 38.5624 41.9107 38.9572C41.9319 39.3519 42.0394 39.7372 42.2255 40.0859C42.4117 40.4347 42.672 40.7384 42.9881 40.9758C44.8219 42.3512 46.9111 43.348 49.1339 43.908C51.3568 44.4681 53.6688 44.5802 55.9354 44.2379C58.202 43.8956 60.3779 43.1057 62.3362 41.9142C64.2945 40.7226 65.9961 39.1534 67.342 37.2977C67.4289 37.1757 67.4804 37.032 67.4907 36.8825C67.5011 36.733 67.4699 36.5836 67.4007 36.4508C67.3314 36.3179 67.2268 36.2067 67.0984 36.1296C66.9699 36.0525 66.8227 36.0124 66.6728 36.0137H61.5293Z" fill="white"/>
<path d="M29.6571 33.0253C30.1794 33.522 30.8772 33.7916 31.5977 33.775C32.3183 33.7584 33.0029 33.457 33.5017 32.9368C34.046 32.3688 35.0742 31.0878 36.8438 28.8729C39.6029 25.4209 44.22 19.6439 46.0252 18.1963C47.7925 16.7785 49.9047 15.4662 53.3627 15.4662C54.9985 15.4656 56.6165 15.8051 58.1141 16.4633C59.6116 17.1214 60.9559 18.0838 62.0616 19.2893C62.1384 19.3743 62.2321 19.4424 62.3367 19.4892C62.4413 19.5361 62.5544 19.5606 62.669 19.5614H67.4036C67.5479 19.562 67.6898 19.5242 67.8147 19.4519C67.9396 19.3795 68.0429 19.2753 68.1142 19.1498C68.1855 19.0243 68.2221 18.8821 68.2203 18.7378C68.2185 18.5935 68.1784 18.4523 68.104 18.3287C66.5634 15.7999 64.3983 13.7098 61.8167 12.2595C59.2351 10.8091 56.3238 10.0472 53.3627 10.0469C48.1761 10.0469 44.8943 12.1458 42.6155 13.974C40.5129 15.6603 36.8311 20.1904 32.5902 25.4982C31.3025 27.1101 29.9709 28.7762 29.5687 29.1963C29.3225 29.4532 29.1294 29.7562 29.0006 30.0879C28.8717 30.4196 28.8096 30.7735 28.8179 31.1292C28.8261 31.4849 28.9044 31.8355 29.0485 32.1609C29.1925 32.4863 29.3993 32.78 29.6571 33.0253Z" fill="white"/>
<path d="M4.31087 61.8056C4.21839 61.7214 4.1457 61.6177 4.09801 61.502C4.05032 61.3863 4.02882 61.2615 4.03504 61.1365V52.7885H1.08039C0.78299 52.7885 0.550772 52.7199 0.383734 52.5826C0.300003 52.5134 0.233561 52.4256 0.18968 52.3262C0.145799 52.2269 0.125689 52.1186 0.130946 52.0101C0.130946 51.7558 0.21273 51.56 0.376299 51.4227C0.539868 51.2854 0.774564 51.2168 1.08039 51.2168H9.02686C9.33318 51.2168 9.56787 51.2854 9.73095 51.4227C9.89402 51.56 9.9758 51.7558 9.9763 52.0101C9.98156 52.1186 9.96145 52.2269 9.91757 52.3262C9.87368 52.4256 9.80724 52.5134 9.72351 52.5826C9.55449 52.7199 9.32227 52.7885 9.02686 52.7885H6.07147V61.135C6.07613 61.2596 6.05315 61.3837 6.00417 61.4984C5.95519 61.613 5.88144 61.7154 5.7882 61.7982C5.58096 61.9729 5.31543 62.0629 5.0447 62.0503C4.73888 62.0503 4.49427 61.9687 4.31087 61.8056Z" fill="white"/>
<path d="M9.50046 61.8048C9.32697 61.6427 9.24023 61.4197 9.24023 61.1357V55.1877C9.24023 54.8903 9.3245 54.664 9.49302 54.5089C9.66155 54.3537 9.89872 54.2749 10.2045 54.2725C10.5109 54.2725 10.7508 54.3537 10.9242 54.5163C11.0977 54.6789 11.1845 54.902 11.1845 55.1855V55.6888C11.4821 55.2973 11.8624 54.9761 12.2982 54.7483C12.7217 54.5297 13.1919 54.4172 13.6685 54.4204H14.0053C14.3319 54.4204 14.5845 54.4891 14.7629 54.6264C14.8471 54.6993 14.9147 54.7895 14.961 54.8908C15.0073 54.9922 15.0313 55.1023 15.0313 55.2137C15.0313 55.3251 15.0073 55.4353 14.961 55.5366C14.9147 55.6379 14.8471 55.7282 14.7629 55.8011C14.5845 55.9384 14.3319 56.007 14.0053 56.007H13.4848C12.8008 56.007 12.2573 56.2231 11.8544 56.6554C11.4514 57.0876 11.2499 57.6801 11.2499 58.4331V61.1342C11.2561 61.2591 11.2346 61.384 11.1869 61.4996C11.1392 61.6153 11.0665 61.719 10.9741 61.8033C10.7907 61.9664 10.5458 62.0479 10.2395 62.0479C9.92028 62.0489 9.67394 61.9679 9.50046 61.8048Z" fill="white"/>
<path d="M17.1702 61.577C16.5476 61.2879 16.0233 60.8226 15.6624 60.2387C15.31 59.6637 15.134 58.9898 15.1345 58.2171C15.1345 56.9661 15.4993 55.9946 16.2289 55.3026C16.9586 54.6107 17.9868 54.2637 19.3137 54.2617C20.1301 54.2617 20.8522 54.3889 21.4802 54.6431C22.1083 54.8974 22.5982 55.2508 22.9501 55.7034C23.2981 56.144 23.4844 56.6906 23.478 57.2521C23.478 57.7408 23.3224 58.117 23.0111 58.3807C22.6998 58.6444 22.2584 58.7767 21.6869 58.7777H17.0773C17.0773 59.3472 17.2788 59.777 17.6817 60.0669C18.0847 60.3569 18.6795 60.5019 19.4661 60.5019C20.2929 60.5019 20.9972 60.3187 21.5791 59.9524C21.9058 59.7492 22.1608 59.6476 22.3442 59.6476C22.5174 59.6476 22.6862 59.7294 22.8498 59.8915C22.9291 59.963 22.9931 60.0499 23.0378 60.1469C23.0826 60.2439 23.1071 60.349 23.11 60.4558C23.113 60.5706 23.0864 60.6843 23.0328 60.7858C22.9791 60.8874 22.9002 60.9735 22.8037 61.0357C22.3532 61.3762 21.8453 61.6331 21.304 61.7941C20.7077 61.9703 20.0887 62.0577 19.4669 62.0535C18.589 62.0511 17.8235 61.8922 17.1702 61.577ZM21.0713 57.3807C21.2443 57.3807 21.3667 57.3477 21.4386 57.2818C21.513 57.2156 21.5457 57.1063 21.5457 56.9532C21.5457 56.5978 21.3442 56.3182 20.9412 56.1145C20.5382 55.9108 19.9947 55.8089 19.3107 55.8089C18.6267 55.8089 18.0884 55.9514 17.6959 56.2364C17.5096 56.3625 17.358 56.5334 17.255 56.7333C17.152 56.9332 17.1009 57.1558 17.1063 57.3807H21.0713Z" fill="white"/>
<path d="M24.9934 61.8054C24.8199 61.6433 24.7332 61.4203 24.7332 61.1363V55.1883C24.7332 54.8909 24.8174 54.6646 24.9859 54.5095C25.1545 54.3544 25.3919 54.2755 25.6982 54.2731C26.0035 54.2731 26.2432 54.3543 26.4172 54.5169C26.5911 54.6795 26.6779 54.9026 26.6774 55.1861V55.6232C27.4025 54.7177 28.3939 54.2651 29.6514 54.2656C30.6313 54.2656 31.4045 54.5732 31.9711 55.1883C32.5376 55.8034 32.8201 56.6423 32.8187 57.705V61.1385C32.8249 61.2635 32.8034 61.3883 32.7557 61.504C32.708 61.6196 32.6353 61.7233 32.5428 61.8076C32.3594 61.9707 32.1143 62.0522 31.8075 62.0522C31.4918 62.0522 31.2469 61.9707 31.0729 61.8076C30.899 61.6446 30.8122 61.4215 30.8127 61.1385V57.705C30.8127 57.1251 30.67 56.6726 30.3845 56.3474C30.099 56.0223 29.7007 55.8594 29.1897 55.8589C28.4139 55.8589 27.812 56.0852 27.3837 56.5377C26.9555 56.9903 26.7411 57.6235 26.7406 58.4374V61.1385C26.7468 61.2635 26.7253 61.3883 26.6776 61.504C26.6299 61.6196 26.5572 61.7233 26.4648 61.8076C26.2814 61.9707 26.0365 62.0522 25.7302 62.0522C25.4125 62.0508 25.1669 61.9685 24.9934 61.8054Z" fill="white"/>
<path d="M35.9629 61.5841C35.3582 61.2856 34.8549 60.8154 34.5161 60.2324C34.1691 59.6421 33.9956 58.9504 33.9956 58.1573C33.9956 57.3642 34.1614 56.675 34.493 56.0896C34.8234 55.5059 35.3222 55.0353 35.9242 54.7395C36.5473 54.4242 37.2823 54.2666 38.1294 54.2666C38.7515 54.2666 39.2769 54.3657 39.7056 54.564C40.1616 54.7823 40.5721 55.085 40.9153 55.4562L40.9309 51.2302C40.9248 51.1053 40.9462 50.9805 40.9938 50.8649C41.0413 50.7492 41.1138 50.6455 41.206 50.561C41.3904 50.3984 41.6355 50.3169 41.9413 50.3164C42.2472 50.3159 42.4895 50.3947 42.6685 50.5528C42.8469 50.711 42.9361 50.9375 42.9361 51.2324V61.1343C42.9361 61.4287 42.8469 61.6549 42.6685 61.8131C42.49 61.9712 42.2477 62.05 41.9413 62.0495C41.635 62.0495 41.3899 61.968 41.206 61.8049C41.1137 61.7205 41.0411 61.6168 40.9936 61.5011C40.946 61.3854 40.9246 61.2607 40.9309 61.1357V60.8272C40.2469 61.6416 39.2977 62.0485 38.0833 62.048C37.2873 62.049 36.5805 61.8944 35.9629 61.5841ZM40.2573 59.8525C40.7064 59.4455 40.9309 58.881 40.9309 58.1588C40.9309 57.4366 40.7064 56.872 40.2573 56.4651C39.8082 56.0582 39.1857 55.8547 38.3897 55.8547C37.6462 55.8547 37.0643 56.0582 36.6439 56.4651C36.2236 56.872 36.0142 57.4366 36.0157 58.1588C36.0157 58.881 36.2249 59.4455 36.6432 59.8525C37.0615 60.2594 37.6434 60.4626 38.3889 60.4621C39.1859 60.4621 39.8087 60.2589 40.2573 59.8525Z" fill="white"/>
<path d="M49.2589 61.2867C48.8301 60.8802 48.6157 60.3102 48.6157 59.5766V51.9796C48.6097 51.8547 48.6313 51.7299 48.679 51.6143C48.7267 51.4986 48.7992 51.3949 48.8916 51.3105C49.0755 51.1484 49.3203 51.0671 49.6261 51.0666C49.8969 51.054 50.1624 51.144 50.3696 51.3186C50.4629 51.4014 50.5367 51.5038 50.5857 51.6185C50.6347 51.7331 50.6576 51.8572 50.6529 51.9818V59.5804C50.6411 59.7791 50.7039 59.975 50.8291 60.1298C50.8897 60.1965 50.9644 60.2489 51.0477 60.2832C51.131 60.3175 51.2209 60.3329 51.3109 60.3283H56.2105C56.5164 60.3283 56.751 60.397 56.9146 60.5343C56.9973 60.6072 57.0623 60.698 57.1047 60.7997C57.147 60.9015 57.1657 61.0116 57.1592 61.1216C57.1645 61.2301 57.1445 61.3384 57.1006 61.4378C57.0567 61.5372 56.9902 61.6249 56.9064 61.6941C56.7384 61.8309 56.5057 61.9001 56.2105 61.9001H51.0655C50.2893 61.8981 49.6871 61.6936 49.2589 61.2867Z" fill="white"/>
<path d="M58.6053 53.0092C58.4957 52.9031 58.4086 52.7759 58.3492 52.6355C58.2897 52.495 58.259 52.344 58.259 52.1914C58.259 52.0388 58.2897 51.8878 58.3492 51.7473C58.4086 51.6069 58.4957 51.4797 58.6053 51.3736C58.8348 51.1649 59.1384 51.0605 59.516 51.0605C59.8937 51.0605 60.2025 51.1649 60.4424 51.3736C60.5565 51.4771 60.6476 51.6034 60.7099 51.7442C60.7722 51.8851 60.8044 52.0374 60.8044 52.1914C60.8044 52.3454 60.7722 52.4978 60.7099 52.6386C60.6476 52.7794 60.5565 52.9057 60.4424 53.0092C60.202 53.2179 59.8932 53.3223 59.516 53.3223C59.1388 53.3223 58.8353 53.2179 58.6053 53.0092ZM58.7971 61.8055C58.6231 61.6434 58.5361 61.4204 58.5361 61.1364V55.1884C58.5361 54.9034 58.6231 54.6804 58.7971 54.5193C58.9711 54.3582 59.2159 54.2769 59.5317 54.2754C59.838 54.2754 60.0828 54.3567 60.2662 54.5193C60.3585 54.6037 60.4311 54.7074 60.4788 54.8231C60.5265 54.9387 60.5481 55.0635 60.5421 55.1884V61.1364C60.5483 61.2614 60.5268 61.3862 60.4791 61.5018C60.4314 61.6175 60.3587 61.7212 60.2662 61.8055C60.0828 61.9686 59.838 62.0501 59.5317 62.0501C59.2149 62.0501 58.9701 61.9686 58.7971 61.8055Z" fill="white"/>
<path d="M62.4707 61.8054C62.2972 61.6433 62.2104 61.4203 62.2104 61.1363V55.1883C62.2104 54.8909 62.2947 54.6646 62.4632 54.5095C62.6318 54.3544 62.8692 54.2755 63.1755 54.2731C63.4808 54.2731 63.7205 54.3543 63.8945 54.5169C64.0684 54.6795 64.1552 54.9026 64.1547 55.1861V55.6232C64.8798 54.7177 65.8699 54.2651 67.1249 54.2656C68.1049 54.2656 68.8781 54.5732 69.4446 55.1883C70.0112 55.8034 70.2945 56.6423 70.2945 57.705V61.1385C70.3007 61.2635 70.2792 61.3883 70.2315 61.504C70.1838 61.6196 70.1111 61.7233 70.0186 61.8076C69.8347 61.9707 69.5899 62.0522 69.2841 62.0522C68.9673 62.0522 68.7222 61.9707 68.5487 61.8076C68.3753 61.6446 68.2885 61.4215 68.2885 61.1385V57.705C68.2885 57.1251 68.1458 56.6726 67.8603 56.3474C67.5748 56.0223 67.1765 55.8594 66.6655 55.8589C65.8898 55.8589 65.2878 56.0852 64.8595 56.5377C64.4313 56.9903 64.2169 57.6223 64.2164 58.4337V61.1348C64.2226 61.2597 64.2011 61.3846 64.1534 61.5002C64.1057 61.6159 64.033 61.7196 63.9406 61.8039C63.7567 61.967 63.5118 62.0485 63.206 62.0485C62.8893 62.0495 62.6442 61.9685 62.4707 61.8054Z" fill="white"/>
<path d="M71.8862 61.8053C71.7122 61.6433 71.6255 61.4202 71.626 61.1362V51.2321C71.626 50.9471 71.7127 50.7241 71.8862 50.563C72.0597 50.4019 72.3045 50.3203 72.6208 50.3184C72.9271 50.3184 73.1722 50.3999 73.3561 50.563C73.4483 50.6474 73.5208 50.7512 73.5683 50.8668C73.6159 50.9825 73.6373 51.1072 73.6312 51.2321V57.3042L78.1018 54.4336C78.282 54.3064 78.4943 54.2324 78.7145 54.2202C78.8509 54.2151 78.9856 54.2518 79.1005 54.3254C79.2155 54.399 79.3052 54.5061 79.3576 54.6321C79.4285 54.7751 79.47 54.9308 79.4795 55.0901C79.4795 55.3548 79.3214 55.5835 79.0052 55.7764L76.6319 57.241C77.5301 57.7808 78.2012 58.3508 78.6453 58.9511C79.0977 59.5747 79.3796 60.3056 79.4632 61.0715C79.4747 61.132 79.4797 61.1936 79.478 61.2552C79.478 61.5094 79.4037 61.705 79.255 61.8425C79.1063 61.9801 78.8996 62.0485 78.6349 62.0485C78.3963 62.058 78.1599 61.9997 77.9531 61.8804C77.8657 61.8265 77.7902 61.7554 77.731 61.6714C77.6719 61.5875 77.6303 61.4924 77.6089 61.392C77.4901 60.8968 77.3181 60.4159 77.0959 59.9578C76.9117 59.5976 76.6627 59.2745 76.3613 59.0046C75.9868 58.6841 75.5788 58.4052 75.1442 58.1726L73.6282 59.2135V61.1362C73.6345 61.2611 73.6131 61.3859 73.5656 61.5016C73.518 61.6173 73.4455 61.721 73.3531 61.8053C73.1692 61.9684 72.9241 62.05 72.6178 62.05C72.3055 62.05 72.0617 61.9684 71.8862 61.8053Z" fill="white"/>
</g>
<defs>
<clipPath id="clip0_1525_9496">
<rect width="80" height="80.2974" fill="white"/>
</clipPath>
</defs>
</svg>
