<svg width="10" height="9" viewBox="0 0 10 9" fill="none" xmlns="http://www.w3.org/2000/svg">
<path fill-rule="evenodd" clip-rule="evenodd" d="M7.01574 0.875C7.47537 0.874612 7.91579 1.05934 8.23761 1.3875C8.92062 2.08088 8.92062 3.19411 8.23761 3.8875L5.00011 7.16562L1.76261 3.8875C1.07961 3.19411 1.07961 2.08088 1.76261 1.3875C2.08462 1.05959 2.52491 0.874865 2.98449 0.874865C3.44407 0.874865 3.88436 1.05959 4.20636 1.3875L5.00011 2.2L5.79074 1.39375C6.11165 1.06161 6.55389 0.874337 7.01574 0.875ZM7.01574 0.250001C6.38799 0.249469 5.78649 0.501785 5.34699 0.950001L5.00011 1.3L4.65324 0.950001C4.21322 0.50262 3.61199 0.250655 2.98449 0.250655C2.35698 0.250655 1.75575 0.50262 1.31574 0.950001C0.393777 1.88854 0.393777 3.39271 1.31574 4.33125L5.00011 8.0625L8.68449 4.33125C9.60645 3.39271 9.60645 1.88854 8.68449 0.950001C8.24458 0.502379 7.64334 0.250173 7.01574 0.250001Z" fill="#616161"/>
</svg>
