<svg width="15" height="15" viewBox="0 0 15 15" fill="none" xmlns="http://www.w3.org/2000/svg">
<path fill-rule="evenodd" clip-rule="evenodd" d="M2.34375 5.95825C2.38233 3.14852 4.69024 0.901449 7.5 0.937938C10.3098 0.901449 12.6177 3.14852 12.6562 5.95825C12.6551 7.0493 12.2924 8.10921 11.625 8.97231L7.5 15.0004L3.375 8.97231C2.70758 8.10921 2.34493 7.0493 2.34375 5.95825ZM11.7188 5.95825C11.6751 3.66848 9.78997 1.84407 7.5 1.87544C5.21003 1.84407 3.32488 3.66848 3.28125 5.95825C3.28057 6.85927 3.58638 7.73372 4.14844 8.43794L7.5 13.3411L10.8797 8.40044C11.4237 7.70261 11.719 6.84307 11.7188 5.95825ZM7.5 4.6875C8.27665 4.6875 8.90625 5.3171 8.90625 6.09375C8.90625 6.8704 8.27665 7.5 7.5 7.5C6.72335 7.5 6.09375 6.8704 6.09375 6.09375C6.09375 5.3171 6.72335 4.6875 7.5 4.6875ZM5.15625 6.09375C5.15625 4.79933 6.20558 3.75 7.5 3.75C8.79442 3.75 9.84375 4.79933 9.84375 6.09375C9.84375 7.38817 8.79442 8.4375 7.5 8.4375C6.20558 8.4375 5.15625 7.38817 5.15625 6.09375Z" fill="#4B4B4B"/>
</svg>
