<svg width="120" height="1100" viewBox="0 0 120 1100" fill="none" xmlns="http://www.w3.org/2000/svg">
<rect width="120" height="1100" rx="40" fill="#009EA0"/>
<g clip-path="url(#clip0_1427_16596)">
<path d="M33.7323 88.2566C37.3708 88.2566 40.3204 85.317 40.3204 81.6908C40.3204 78.0646 37.3708 75.125 33.7323 75.125C30.0938 75.125 27.1442 78.0646 27.1442 81.6908C27.1442 85.317 30.0938 88.2566 33.7323 88.2566Z" fill="white"/>
<path d="M38.2342 73.4651C38.4287 73.464 38.6166 73.3939 38.7643 73.2674C40.7971 71.5472 43.3508 70.5633 46.0123 70.4748C48.6737 70.3863 51.2872 71.1983 53.4297 72.7796C54.5108 73.5789 56.0268 73.5729 56.9985 72.6473C57.2873 72.3774 57.5135 72.0474 57.6611 71.6807C57.8087 71.314 57.8741 70.9194 57.8529 70.5246C57.8316 70.1299 57.7241 69.7446 57.538 69.3959C57.3519 69.0471 57.0916 68.7434 56.7755 68.506C54.9416 67.1308 52.8525 66.1341 50.6297 65.5742C48.4069 65.0143 46.0949 64.9022 43.8284 65.2446C41.5618 65.587 39.3861 66.3769 37.4279 67.5685C35.4696 68.76 33.7681 70.3292 32.4223 72.1848C32.3354 72.3069 32.2839 72.4506 32.2736 72.6C32.2632 72.7495 32.2944 72.8989 32.3636 73.0318C32.4328 73.1647 32.5375 73.2758 32.6659 73.3529C32.7944 73.4301 32.9416 73.4702 33.0915 73.4689L38.2342 73.4651Z" fill="white"/>
<path d="M70.1063 76.4535C69.5841 75.9568 68.8863 75.6873 68.1657 75.7038C67.4452 75.7204 66.7606 76.0218 66.2617 76.542C65.7175 77.11 64.69 78.3911 62.9197 80.6059C60.1606 84.058 55.5435 89.8349 53.7383 91.2825C51.971 92.7004 49.8587 94.0119 46.4007 94.0119C44.765 94.0127 43.147 93.6733 41.6495 93.0152C40.1519 92.3572 38.8076 91.395 37.7019 90.1896C37.625 90.1046 37.5313 90.0365 37.4268 89.9896C37.3222 89.9428 37.209 89.9182 37.0944 89.9175H32.3584C32.2141 89.9169 32.0722 89.9547 31.9473 90.027C31.8224 90.0993 31.719 90.2036 31.6477 90.329C31.5764 90.4545 31.5398 90.5967 31.5416 90.741C31.5434 90.8853 31.5836 91.0265 31.658 91.1502C33.1987 93.6792 35.364 95.7694 37.9459 97.2198C40.5278 98.6701 43.4394 99.4319 46.4007 99.432C51.5874 99.432 54.8691 97.3331 57.148 95.5048C59.2506 93.8186 62.9323 89.2885 67.1732 83.9807C68.461 82.3703 69.7926 80.7048 70.1948 80.2885C70.4419 80.0314 70.6357 79.7281 70.7651 79.3958C70.8944 79.0636 70.9568 78.709 70.9486 78.3526C70.9404 77.9961 70.8617 77.6448 70.7172 77.3189C70.5726 76.993 70.365 76.6989 70.1063 76.4535Z" fill="white"/>
<path d="M86.0312 89.3523C89.6697 89.3523 92.6193 86.4127 92.6193 82.7865C92.6193 79.1603 89.6697 76.2207 86.0312 76.2207C82.3927 76.2207 79.4431 79.1603 79.4431 82.7865C79.4431 86.4127 82.3927 89.3523 86.0312 89.3523Z" fill="white"/>
<path d="M81.5293 91.0137C81.3348 91.0148 81.147 91.0849 80.9992 91.2115C78.9665 92.9316 76.4131 93.9157 73.7518 94.0048C71.0905 94.0938 68.4769 93.2826 66.3338 91.7022C65.2528 90.9029 63.7368 90.9089 62.765 91.8345C62.4762 92.1045 62.2501 92.4344 62.1025 92.8011C61.9549 93.1678 61.8894 93.5624 61.9107 93.9572C61.9319 94.3519 62.0394 94.7372 62.2255 95.0859C62.4117 95.4347 62.672 95.7384 62.9881 95.9758C64.8219 97.3512 66.9111 98.348 69.1339 98.908C71.3568 99.4681 73.6688 99.5802 75.9354 99.2379C78.202 98.8956 80.3779 98.1057 82.3362 96.9142C84.2945 95.7226 85.9961 94.1534 87.342 92.2977C87.4289 92.1757 87.4804 92.032 87.4907 91.8825C87.5011 91.733 87.4699 91.5836 87.4007 91.4508C87.3314 91.3179 87.2268 91.2067 87.0984 91.1296C86.9699 91.0525 86.8227 91.0124 86.6728 91.0137H81.5293Z" fill="white"/>
<path d="M49.6573 88.0253C50.1795 88.522 50.8773 88.7916 51.5978 88.775C52.3184 88.7584 53.003 88.457 53.5019 87.9368C54.0461 87.3688 55.0744 86.0878 56.8439 83.8729C59.603 80.4209 64.2201 74.6439 66.0253 73.1963C67.7926 71.7785 69.9048 70.4662 73.3628 70.4662C74.9986 70.4656 76.6166 70.8051 78.1142 71.4633C79.6117 72.1214 80.956 73.0838 82.0617 74.2893C82.1386 74.3743 82.2322 74.4424 82.3368 74.4892C82.4414 74.5361 82.5546 74.5606 82.6692 74.5614H87.4037C87.548 74.562 87.6899 74.5242 87.8148 74.4519C87.9397 74.3795 88.0431 74.2753 88.1144 74.1498C88.1856 74.0243 88.2223 73.8821 88.2205 73.7378C88.2187 73.5935 88.1785 73.4523 88.1041 73.3287C86.5635 70.7999 84.3984 68.7098 81.8168 67.2595C79.2352 65.8091 76.3239 65.0472 73.3628 65.0469C68.1762 65.0469 64.8944 67.1458 62.6156 68.974C60.513 70.6603 56.8312 75.1904 52.5903 80.4982C51.3026 82.1101 49.971 83.7762 49.5688 84.1963C49.3226 84.4532 49.1295 84.7562 49.0007 85.0879C48.8719 85.4196 48.8098 85.7735 48.818 86.1292C48.8262 86.4849 48.9046 86.8355 49.0486 87.1609C49.1926 87.4863 49.3995 87.78 49.6573 88.0253Z" fill="white"/>
<path d="M24.3108 116.806C24.2183 116.721 24.1456 116.618 24.098 116.502C24.0503 116.386 24.0288 116.261 24.035 116.137V107.789H21.0803C20.7829 107.789 20.5507 107.72 20.3837 107.583C20.2999 107.513 20.2335 107.426 20.1896 107.326C20.1457 107.227 20.1256 107.119 20.1309 107.01C20.1309 106.756 20.2127 106.56 20.3762 106.423C20.5398 106.285 20.7745 106.217 21.0803 106.217H29.0268C29.3331 106.217 29.5678 106.285 29.7309 106.423C29.894 106.56 29.9757 106.756 29.9762 107.01C29.9815 107.119 29.9614 107.227 29.9175 107.326C29.8736 107.426 29.8072 107.513 29.7234 107.583C29.5544 107.72 29.3222 107.789 29.0268 107.789H26.0714V116.135C26.0761 116.26 26.0531 116.384 26.0041 116.498C25.9551 116.613 25.8814 116.715 25.7881 116.798C25.5809 116.973 25.3154 117.063 25.0446 117.05C24.7388 117.05 24.4942 116.969 24.3108 116.806Z" fill="white"/>
<path d="M29.5004 116.806C29.3269 116.644 29.2402 116.421 29.2402 116.137V110.189C29.2402 109.891 29.3244 109.665 29.493 109.51C29.6615 109.355 29.8987 109.276 30.2045 109.273C30.5108 109.273 30.7507 109.355 30.9242 109.517C31.0977 109.68 31.1844 109.903 31.1844 110.186V110.69C31.482 110.298 31.8623 109.977 32.2982 109.749C32.7217 109.531 33.1919 109.418 33.6684 109.421H34.0052C34.3319 109.421 34.5844 109.49 34.7628 109.627C34.8471 109.7 34.9146 109.79 34.9609 109.892C35.0072 109.993 35.0312 110.103 35.0312 110.215C35.0312 110.326 35.0072 110.436 34.9609 110.538C34.9146 110.639 34.8471 110.729 34.7628 110.802C34.5844 110.939 34.3319 111.008 34.0052 111.008H33.4848C32.8008 111.008 32.2573 111.224 31.8543 111.656C31.4513 112.089 31.2498 112.681 31.2498 113.434V116.135C31.2561 116.26 31.2346 116.385 31.1869 116.501C31.1392 116.616 31.0665 116.72 30.974 116.804C30.7906 116.967 30.5457 117.049 30.2394 117.049C29.9202 117.05 29.6739 116.969 29.5004 116.806Z" fill="white"/>
<path d="M37.1703 116.577C36.5476 116.288 36.0234 115.823 35.6625 115.239C35.31 114.664 35.1341 113.99 35.1346 113.217C35.1346 111.966 35.4994 110.995 36.229 110.303C36.9586 109.611 37.9869 109.264 39.3138 109.262C40.1301 109.262 40.8523 109.389 41.4803 109.643C42.1083 109.897 42.5983 110.251 42.9502 110.703C43.2982 111.144 43.4845 111.691 43.4781 112.252C43.4781 112.741 43.3224 113.117 43.0112 113.381C42.6999 113.644 42.2585 113.777 41.687 113.778H37.0773C37.0773 114.347 37.2788 114.777 37.6818 115.067C38.0848 115.357 38.6796 115.502 39.4662 115.502C40.2929 115.502 40.9973 115.319 41.5792 114.952C41.9058 114.749 42.1609 114.648 42.3442 114.648C42.5175 114.648 42.6863 114.729 42.8498 114.891C42.9292 114.963 42.9932 115.05 43.0379 115.147C43.0826 115.244 43.1072 115.349 43.1101 115.456C43.1131 115.571 43.0865 115.684 43.0328 115.786C42.9792 115.887 42.9003 115.973 42.8037 116.036C42.3533 116.376 41.8453 116.633 41.3041 116.794C40.7078 116.97 40.0887 117.058 39.4669 117.054C38.5891 117.051 37.8236 116.892 37.1703 116.577ZM41.0714 112.381C41.2444 112.381 41.3668 112.348 41.4387 112.282C41.513 112.216 41.5457 112.106 41.5457 111.953C41.5457 111.598 41.3443 111.318 40.9413 111.115C40.5383 110.911 39.9948 110.809 39.3108 110.809C38.6268 110.809 38.0885 110.951 37.6959 111.236C37.5097 111.363 37.3581 111.533 37.2551 111.733C37.1521 111.933 37.1009 112.156 37.1063 112.381H41.0714Z" fill="white"/>
<path d="M44.9933 116.805C44.8198 116.643 44.7331 116.42 44.7331 116.136V110.188C44.7331 109.891 44.8174 109.665 44.9859 109.509C45.1544 109.354 45.3918 109.276 45.6981 109.273C46.0035 109.273 46.2431 109.354 46.4171 109.517C46.5911 109.68 46.6778 109.903 46.6773 110.186V110.623C47.4025 109.718 48.3938 109.265 49.6513 109.266C50.6312 109.266 51.4045 109.573 51.971 110.188C52.5376 110.803 52.8201 111.642 52.8186 112.705V116.138C52.8248 116.263 52.8033 116.388 52.7556 116.504C52.7079 116.62 52.6352 116.723 52.5428 116.808C52.3594 116.971 52.1143 117.052 51.8074 117.052C51.4917 117.052 51.2468 116.971 51.0729 116.808C50.8989 116.645 50.8122 116.422 50.8126 116.138V112.705C50.8126 112.125 50.6699 111.673 50.3844 111.347C50.0989 111.022 49.7006 110.859 49.1896 110.859C48.4139 110.859 47.8119 111.085 47.3837 111.538C46.9554 111.99 46.741 112.623 46.7405 113.437V116.138C46.7467 116.263 46.7252 116.388 46.6776 116.504C46.6299 116.62 46.5572 116.723 46.4647 116.808C46.2813 116.971 46.0364 117.052 45.7301 117.052C45.4124 117.051 45.1668 116.968 44.9933 116.805Z" fill="white"/>
<path d="M55.9628 116.584C55.3581 116.286 54.8548 115.815 54.516 115.232C54.169 114.642 53.9955 113.95 53.9955 113.157C53.9955 112.364 54.1613 111.675 54.4929 111.09C54.8234 110.506 55.3221 110.035 55.9242 109.739C56.5472 109.424 57.2823 109.267 58.1294 109.267C58.7514 109.267 59.2768 109.366 59.7056 109.564C60.1615 109.782 60.572 110.085 60.9153 110.456L60.9309 106.23C60.9247 106.105 60.9462 105.981 60.9937 105.865C61.0413 105.749 61.1137 105.645 61.206 105.561C61.3903 105.398 61.6354 105.317 61.9413 105.316C62.2471 105.316 62.4895 105.395 62.6684 105.553C62.8468 105.711 62.9361 105.937 62.9361 106.232V116.134C62.9361 116.429 62.8468 116.655 62.6684 116.813C62.49 116.971 62.2476 117.05 61.9413 117.049C61.635 117.049 61.3898 116.968 61.206 116.805C61.1136 116.721 61.0411 116.617 60.9935 116.501C60.9459 116.385 60.9245 116.261 60.9309 116.136V115.827C60.2468 116.642 59.2977 117.049 58.0833 117.048C57.2872 117.049 56.5804 116.894 55.9628 116.584ZM60.2573 114.852C60.7063 114.446 60.9309 113.881 60.9309 113.159C60.9309 112.437 60.7063 111.872 60.2573 111.465C59.8082 111.058 59.1856 110.855 58.3896 110.855C57.6461 110.855 57.0642 111.058 56.6439 111.465C56.2236 111.872 56.0141 112.437 56.0156 113.159C56.0156 113.881 56.2248 114.446 56.6431 114.852C57.0615 115.259 57.6434 115.463 58.3889 115.462C59.1859 115.462 59.8087 115.259 60.2573 114.852Z" fill="white"/>
<path d="M69.2587 116.288C68.83 115.881 68.6156 115.311 68.6156 114.578V106.981C68.6096 106.856 68.6312 106.731 68.6789 106.615C68.7266 106.5 68.7991 106.396 68.8914 106.311C69.0753 106.149 69.3202 106.068 69.626 106.068C69.8968 106.055 70.1623 106.145 70.3695 106.32C70.4628 106.402 70.5366 106.505 70.5856 106.619C70.6345 106.734 70.6575 106.858 70.6528 106.983V114.581C70.641 114.78 70.7038 114.976 70.829 115.131C70.8896 115.197 70.9643 115.25 71.0476 115.284C71.1309 115.319 71.2208 115.334 71.3108 115.329H76.2104C76.5162 115.329 76.7509 115.398 76.9145 115.535C76.9972 115.608 77.0622 115.699 77.1045 115.801C77.1469 115.902 77.1656 116.013 77.1591 116.123C77.1644 116.231 77.1443 116.339 77.1005 116.439C77.0566 116.538 76.9901 116.626 76.9063 116.695C76.7383 116.832 76.5056 116.901 76.2104 116.901H71.0654C70.2892 116.899 69.687 116.695 69.2587 116.288Z" fill="white"/>
<path d="M78.6052 108.009C78.4957 107.903 78.4086 107.776 78.3491 107.635C78.2896 107.495 78.259 107.344 78.259 107.191C78.259 107.039 78.2896 106.888 78.3491 106.747C78.4086 106.607 78.4957 106.48 78.6052 106.374C78.8347 106.165 79.1383 106.061 79.516 106.061C79.8937 106.061 80.2025 106.165 80.4424 106.374C80.5564 106.477 80.6475 106.603 80.7098 106.744C80.7722 106.885 80.8044 107.037 80.8044 107.191C80.8044 107.345 80.7722 107.498 80.7098 107.639C80.6475 107.779 80.5564 107.906 80.4424 108.009C80.202 108.218 79.8932 108.322 79.516 108.322C79.1388 108.322 78.8352 108.218 78.6052 108.009ZM78.797 116.806C78.623 116.643 78.5361 116.42 78.5361 116.136V110.188C78.5361 109.903 78.623 109.68 78.797 109.519C78.971 109.358 79.2159 109.277 79.5316 109.275C79.8379 109.275 80.0828 109.357 80.2662 109.519C80.3585 109.604 80.4311 109.707 80.4787 109.823C80.5264 109.939 80.548 110.063 80.542 110.188V116.136C80.5482 116.261 80.5267 116.386 80.479 116.502C80.4313 116.618 80.3587 116.721 80.2662 116.806C80.0828 116.969 79.8379 117.05 79.5316 117.05C79.2149 117.05 78.97 116.969 78.797 116.806Z" fill="white"/>
<path d="M82.4706 116.805C82.2971 116.643 82.2104 116.42 82.2104 116.136V110.188C82.2104 109.891 82.2946 109.665 82.4632 109.509C82.6317 109.354 82.8691 109.276 83.1754 109.273C83.4808 109.273 83.7204 109.354 83.8944 109.517C84.0684 109.68 84.1551 109.903 84.1546 110.186V110.623C84.8798 109.718 85.8699 109.265 87.1249 109.266C88.1048 109.266 88.878 109.573 89.4446 110.188C90.0111 110.803 90.2944 111.642 90.2944 112.705V116.138C90.3006 116.263 90.2791 116.388 90.2314 116.504C90.1837 116.62 90.1111 116.723 90.0186 116.808C89.8347 116.971 89.5898 117.052 89.284 117.052C88.9673 117.052 88.7222 116.971 88.5487 116.808C88.3752 116.645 88.2885 116.422 88.2885 116.138V112.705C88.2885 112.125 88.1457 111.673 87.8602 111.347C87.5747 111.022 87.1764 110.859 86.6654 110.859C85.8897 110.859 85.2877 111.085 84.8595 111.538C84.4312 111.99 84.2168 112.622 84.2163 113.434V116.135C84.2226 116.26 84.2011 116.385 84.1534 116.5C84.1057 116.616 84.033 116.72 83.9405 116.804C83.7566 116.967 83.5118 117.049 83.2059 117.049C82.8892 117.05 82.6441 116.968 82.4706 116.805Z" fill="white"/>
<path d="M91.8863 116.805C91.7123 116.643 91.6255 116.42 91.626 116.136V106.232C91.626 105.947 91.7128 105.724 91.8863 105.563C92.0597 105.402 92.3046 105.32 92.6208 105.318C92.9272 105.318 93.1723 105.4 93.3561 105.563C93.4484 105.647 93.5208 105.751 93.5684 105.867C93.6159 105.982 93.6374 106.107 93.6312 106.232V112.304L98.1019 109.434C98.282 109.306 98.4943 109.232 98.7145 109.22C98.8509 109.215 98.9856 109.252 99.1006 109.325C99.2156 109.399 99.3052 109.506 99.3576 109.632C99.4286 109.775 99.4701 109.931 99.4796 110.09C99.4796 110.355 99.3215 110.584 99.0052 110.776L96.632 112.241C97.5301 112.781 98.2013 113.351 98.6454 113.951C99.0977 114.575 99.3796 115.306 99.4632 116.072C99.4748 116.132 99.4798 116.194 99.4781 116.255C99.4781 116.509 99.4037 116.705 99.255 116.843C99.1063 116.98 98.8996 117.048 98.635 117.048C98.3964 117.058 98.16 117 97.9532 116.88C97.8658 116.826 97.7902 116.755 97.7311 116.671C97.6719 116.587 97.6304 116.492 97.6089 116.392C97.4901 115.897 97.3181 115.416 97.0959 114.958C96.9117 114.598 96.6627 114.274 96.3614 114.005C95.9869 113.684 95.5788 113.405 95.1443 113.173L93.6283 114.214V116.136C93.6346 116.261 93.6132 116.386 93.5656 116.502C93.5181 116.617 93.4455 116.721 93.3532 116.805C93.1693 116.968 92.9242 117.05 92.6179 117.05C92.3056 117.05 92.0617 116.968 91.8863 116.805Z" fill="white"/>
</g>
<defs>
<clipPath id="clip0_1427_16596">
<rect width="80" height="80.2974" fill="white" transform="translate(20 55)"/>
</clipPath>
</defs>
</svg>
