<svg width="178" height="178" viewBox="0 0 178 178" fill="none" xmlns="http://www.w3.org/2000/svg">
<path d="M98.4056 0.498394C78.8471 -1.58021 59.151 2.87861 42.3947 13.1782C25.6384 23.4777 12.7659 39.0378 5.78847 57.4272C-1.18898 75.8166 -1.87829 95.9993 3.82824 114.822C9.53478 133.645 21.3157 150.047 37.3302 161.465C53.3448 172.884 72.6908 178.676 92.3455 177.937C112 177.198 130.856 169.968 145.968 157.379C161.079 144.789 171.595 127.548 175.871 108.35C180.147 89.1522 177.944 69.0783 169.604 51.2651L152.489 59.2775C159.058 73.3084 160.794 89.1199 157.425 104.242C154.057 119.363 145.774 132.943 133.872 142.86C121.969 152.776 107.116 158.47 91.6351 159.053C76.1538 159.635 60.9156 155.073 48.3015 146.078C35.6875 137.084 26.4081 124.165 21.9132 109.339C17.4184 94.5131 17.9613 78.6159 23.4572 64.1312C28.9531 49.6466 39.0923 37.3904 52.2907 29.2778C65.489 21.1652 81.003 17.6532 96.4085 19.2904L98.4056 0.498394Z" fill="#F3AE5F" fill-opacity="0.2"/>
<path d="M164.102 62.901C169.054 61.1801 171.719 55.742 169.481 51.0014C162.93 37.1281 152.879 25.1313 140.248 16.2354C127.617 7.33957 112.935 1.91657 97.6659 0.422815C92.4484 -0.0876129 88.2258 4.25338 88.2737 9.4956C88.3216 14.7378 92.6287 18.8823 97.8293 19.5434C109.117 20.9783 119.935 25.1501 129.316 31.7568C138.697 38.3635 146.269 47.1443 151.423 57.2888C153.797 61.9627 159.15 64.6219 164.102 62.901Z" fill="#F3AE5F"/>
</svg>
